<?xml version="1.0" encoding="utf-8"?>
<!-- Generator: Adobe Illustrator 26.0.2, SVG Export Plug-In . SVG Version: 6.00 Build 0)  -->
<svg version="1.1" id="Layer_1" focusable="false" xmlns="http://www.w3.org/2000/svg" xmlns:xlink="http://www.w3.org/1999/xlink"
	 x="0px" y="0px" viewBox="0 0 512 512" style="enable-background:new 0 0 512 512;" xml:space="preserve">
<style type="text/css">
	.st0{fill:#EE9EA2;}
</style>
<path class="st0" d="M472.3,195.9l-67.1-22.9c-19.3-6.6-33.5-20.9-38.1-38.3l-16-60.4c-11.6-43.8-76.6-57.1-110-22.6L195,99.2
	c-13.3,13.7-33.5,20.9-54.2,19.3l-71.9-5.6c-52-4.1-86.9,44.9-59,82.8l38.5,52.4c11.1,15.1,12.8,33.9,4.6,50.2l-28.4,57
	C4,396.6,47.5,440.3,98.1,429.2l70-15.3c20.1-4.4,41.4,0,57.1,11.7l54.3,40.8c39.3,29.6,101,7.6,104.5-37.2l4.7-61.9
	c1.4-17.8,12.8-33.9,30.6-43l62-31.7C526.1,269.7,520.8,212.5,472.3,195.9L472.3,195.9z"/>
</svg>
